<svg data-v-fde0c5aa="" xmlns="http://www.w3.org/2000/svg" viewBox="0 0 300 300" class="iconLeft"><!----><defs data-v-fde0c5aa=""><!----></defs><rect data-v-fde0c5aa="" fill="transparent" x="0" y="0" width="300px" height="300px" class="logo-background-square"></rect><defs data-v-fde0c5aa=""><!----></defs><g data-v-fde0c5aa="" id="2d6c02b8-4484-4c86-b5ca-c6118a67193e" fill="#000000" transform="matrix(1.733787656262928,0,0,1.733787656262928,83.1709969212093,132.89618434106433)"><path d="M1.24 13.64L1.24 3.63L5.17 3.63L5.17 3.63Q6.49 3.63 7.50 3.96L7.50 3.96L7.50 3.96Q8.50 4.30 9.19 4.91L9.19 4.91L9.19 4.91Q9.88 5.52 10.23 6.38L10.23 6.38L10.23 6.38Q10.58 7.25 10.58 8.29L10.58 8.29L10.58 8.29Q10.58 8.92 10.45 9.56L10.45 9.56L10.45 9.56Q10.32 10.21 10.03 10.80L10.03 10.80L10.03 10.80Q9.74 11.40 9.29 11.92L9.29 11.92L9.29 11.92Q8.84 12.44 8.20 12.82L8.20 12.82L8.20 12.82Q7.57 13.21 6.74 13.43L6.74 13.43L6.74 13.43Q5.91 13.65 4.87 13.65L4.87 13.65L1.24 13.64ZM3.66 5.12L3.66 12.15L5.13 12.15L5.13 12.15Q5.89 12.15 6.44 11.88L6.44 11.88L6.44 11.88Q7 11.60 7.37 11.11L7.37 11.11L7.37 11.11Q7.73 10.62 7.91 9.96L7.91 9.96L7.91 9.96Q8.09 9.30 8.09 8.52L8.09 8.52L8.09 8.52Q8.09 6.81 7.28 5.96L7.28 5.96L7.28 5.96Q6.47 5.12 4.97 5.12L4.97 5.12L3.66 5.12ZM16.28 12.60L16.28 12.60L16.28 12.60Q16.08 12.77 15.82 12.97L15.82 12.97L15.82 12.97Q15.56 13.18 15.25 13.36L15.25 13.36L15.25 13.36Q14.94 13.54 14.59 13.66L14.59 13.66L14.59 13.66Q14.25 13.78 13.86 13.78L13.86 13.78L13.86 13.78Q13.38 13.78 13.03 13.60L13.03 13.60L13.03 13.60Q12.67 13.42 12.44 13.13L12.44 13.13L12.44 13.13Q12.20 12.83 12.08 12.46L12.08 12.46L12.08 12.46Q11.96 12.09 11.96 11.72L11.96 11.72L11.96 11.72Q11.96 11.22 12.19 10.77L12.19 10.77L12.19 10.77Q12.42 10.33 12.91 10.00L12.91 10.00L12.91 10.00Q13.39 9.67 14.14 9.47L14.14 9.47L14.14 9.47Q14.90 9.28 15.93 9.28L15.93 9.28L16.20 9.28L16.20 8.86L16.20 8.86Q16.20 8.31 15.86 8.02L15.86 8.02L15.86 8.02Q15.52 7.73 14.94 7.73L14.94 7.73L14.94 7.73Q14.69 7.73 14.41 7.79L14.41 7.79L14.41 7.79Q14.14 7.85 13.86 7.96L13.86 7.96L13.86 7.96Q13.58 8.07 13.31 8.21L13.31 8.21L13.31 8.21Q13.04 8.35 12.81 8.52L12.81 8.52L12.69 8.45L12.28 7.01L12.28 7.01Q13.17 6.60 13.95 6.43L13.95 6.43L13.95 6.43Q14.74 6.26 15.50 6.26L15.50 6.26L15.50 6.26Q16.15 6.26 16.71 6.38L16.71 6.38L16.71 6.38Q17.27 6.51 17.69 6.78L17.69 6.78L17.69 6.78Q18.10 7.06 18.34 7.51L18.34 7.51L18.34 7.51Q18.58 7.95 18.58 8.60L18.58 8.60L18.58 11.51L18.58 11.51Q18.58 11.63 18.60 11.75L18.60 11.75L18.60 11.75Q18.62 11.87 18.68 11.97L18.68 11.97L18.68 11.97Q18.73 12.07 18.83 12.13L18.83 12.13L18.83 12.13Q18.92 12.19 19.07 12.19L19.07 12.19L19.07 12.19Q19.17 12.19 19.26 12.17L19.26 12.17L19.26 12.17Q19.35 12.16 19.47 12.11L19.47 12.11L19.47 13.13L19.47 13.13Q19.02 13.43 18.58 13.61L18.58 13.61L18.58 13.61Q18.14 13.78 17.72 13.78L17.72 13.78L17.72 13.78Q17.18 13.78 16.83 13.47L16.83 13.47L16.83 13.47Q16.48 13.17 16.28 12.60ZM16.20 11.70L16.20 10.12L15.94 10.12L15.94 10.12Q15.40 10.12 15.05 10.20L15.05 10.20L15.05 10.20Q14.70 10.27 14.49 10.42L14.49 10.42L14.49 10.42Q14.28 10.56 14.20 10.76L14.20 10.76L14.20 10.76Q14.12 10.96 14.12 11.22L14.12 11.22L14.12 11.22Q14.12 11.48 14.19 11.66L14.19 11.66L14.19 11.66Q14.27 11.84 14.39 11.96L14.39 11.96L14.39 11.96Q14.52 12.08 14.69 12.13L14.69 12.13L14.69 12.13Q14.85 12.19 15.04 12.19L15.04 12.19L15.04 12.19Q15.29 12.19 15.58 12.08L15.58 12.08L15.58 12.08Q15.87 11.98 16.20 11.70L16.20 11.70ZM22.05 13.64L19.69 6.40L22.25 6.40L23.32 10.55L23.60 11.95L23.74 11.95L24.00 10.55L25.09 6.40L27.11 6.40L24.76 13.64L22.05 13.64ZM28.38 13.64L28.38 6.40L30.75 6.40L30.75 13.64L28.38 13.64ZM29.54 5.26L29.54 5.26L29.54 5.26Q29.23 5.26 28.98 5.17L28.98 5.17L28.98 5.17Q28.74 5.08 28.56 4.92L28.56 4.92L28.56 4.92Q28.39 4.76 28.29 4.55L28.29 4.55L28.29 4.55Q28.20 4.34 28.20 4.09L28.20 4.09L28.20 4.09Q28.20 3.84 28.30 3.62L28.30 3.62L28.30 3.62Q28.41 3.40 28.59 3.24L28.59 3.24L28.59 3.24Q28.78 3.08 29.04 2.98L29.04 2.98L29.04 2.98Q29.30 2.88 29.61 2.88L29.61 2.88L29.61 2.88Q29.91 2.88 30.16 2.98L30.16 2.98L30.16 2.98Q30.41 3.07 30.58 3.23L30.58 3.23L30.58 3.23Q30.75 3.38 30.85 3.60L30.85 3.60L30.85 3.60Q30.95 3.81 30.95 4.05L30.95 4.05L30.95 4.05Q30.95 4.31 30.84 4.53L30.84 4.53L30.84 4.53Q30.73 4.74 30.55 4.91L30.55 4.91L30.55 4.91Q30.37 5.07 30.11 5.16L30.11 5.16L30.11 5.16Q29.85 5.26 29.54 5.26ZM37.63 11.51L37.63 7.95L37.63 7.95Q37.30 7.81 37.05 7.77L37.05 7.77L37.05 7.77Q36.80 7.73 36.65 7.73L36.65 7.73L36.65 7.73Q36.18 7.73 35.84 7.92L35.84 7.92L35.84 7.92Q35.49 8.11 35.26 8.44L35.26 8.44L35.26 8.44Q35.03 8.76 34.92 9.19L34.92 9.19L34.92 9.19Q34.81 9.63 34.81 10.10L34.81 10.10L34.81 10.10Q34.81 10.57 34.91 10.95L34.91 10.95L34.91 10.95Q35.01 11.33 35.20 11.61L35.20 11.61L35.20 11.61Q35.39 11.89 35.65 12.04L35.65 12.04L35.65 12.04Q35.91 12.19 36.23 12.19L36.23 12.19L36.23 12.19Q36.59 12.19 36.96 12.01L36.96 12.01L36.96 12.01Q37.32 11.83 37.63 11.51L37.63 11.51ZM37.63 6.41L37.63 2.69L40.00 2.69L40.00 13.64L37.97 13.64L37.71 12.52L37.71 12.52Q37.45 12.75 37.18 12.97L37.18 12.97L37.18 12.97Q36.90 13.20 36.59 13.38L36.59 13.38L36.59 13.38Q36.28 13.56 35.93 13.67L35.93 13.67L35.93 13.67Q35.58 13.78 35.18 13.78L35.18 13.78L35.18 13.78Q34.53 13.78 34.01 13.49L34.01 13.49L34.01 13.49Q33.49 13.20 33.12 12.72L33.12 12.72L33.12 12.72Q32.76 12.24 32.57 11.62L32.57 11.62L32.57 11.62Q32.38 11.01 32.38 10.35L32.38 10.35L32.38 10.35Q32.38 9.78 32.52 9.25L32.52 9.25L32.52 9.25Q32.66 8.72 32.93 8.27L32.93 8.27L32.93 8.27Q33.20 7.81 33.57 7.44L33.57 7.44L33.57 7.44Q33.94 7.08 34.40 6.81L34.40 6.81L34.40 6.81Q34.85 6.55 35.37 6.41L35.37 6.41L35.37 6.41Q35.90 6.26 36.46 6.26L36.46 6.26L36.46 6.26Q36.81 6.26 37.13 6.31L37.13 6.31L37.13 6.31Q37.44 6.36 37.63 6.41L37.63 6.41ZM43.62 17.04L43.00 16.03L43.00 16.03Q43.59 15.65 43.98 15.25L43.98 15.25L43.98 15.25Q44.37 14.85 44.60 14.39L44.60 14.39L44.60 14.39Q44.84 13.93 44.93 13.37L44.93 13.37L44.93 13.37Q45.03 12.81 45.03 12.09L45.03 12.09L45.03 3.63L47.45 3.63L47.45 11.52L47.45 11.52Q47.45 12.56 47.23 13.41L47.23 13.41L47.23 13.41Q47.01 14.25 46.55 14.93L46.55 14.93L46.55 14.93Q46.08 15.60 45.36 16.12L45.36 16.12L45.36 16.12Q44.63 16.64 43.62 17.04L43.62 17.04ZM51.19 13.78L51.19 13.78L51.19 13.78Q50.90 13.78 50.64 13.68L50.64 13.68L50.64 13.68Q50.39 13.57 50.20 13.38L50.20 13.38L50.20 13.38Q50.00 13.19 49.90 12.93L49.90 12.93L49.90 12.93Q49.79 12.67 49.79 12.37L49.79 12.37L49.79 12.37Q49.79 12.06 49.91 11.80L49.91 11.80L49.91 11.80Q50.03 11.53 50.22 11.34L50.22 11.34L50.22 11.34Q50.42 11.15 50.69 11.04L50.69 11.04L50.69 11.04Q50.95 10.93 51.24 10.93L51.24 10.93L51.24 10.93Q51.52 10.93 51.78 11.04L51.78 11.04L51.78 11.04Q52.04 11.15 52.23 11.34L52.23 11.34L52.23 11.34Q52.42 11.53 52.53 11.79L52.53 11.79L52.53 11.79Q52.64 12.05 52.64 12.35L52.64 12.35L52.64 12.35Q52.64 12.66 52.52 12.92L52.52 12.92L52.52 12.92Q52.40 13.19 52.20 13.38L52.20 13.38L52.20 13.38Q51.99 13.57 51.73 13.68L51.73 13.68L51.73 13.68Q51.47 13.78 51.19 13.78ZM59.55 13.64L57.51 13.64L58.30 3.63L61.71 3.63L63.21 8.83L63.59 10.69L63.73 10.69L64.16 8.83L65.64 3.63L69.27 3.63L70.06 13.64L67.46 13.64L67.13 6.90L67.12 5.10L66.95 5.10L66.53 6.85L64.61 13.45L62.41 13.45L60.48 6.86L60.04 5.10L59.88 5.10L59.87 6.89L59.55 13.64ZM75.38 13.78L75.38 13.78L75.38 13.78Q74.44 13.78 73.74 13.49L73.74 13.49L73.74 13.49Q73.04 13.20 72.58 12.71L72.58 12.71L72.58 12.71Q72.11 12.22 71.88 11.58L71.88 11.58L71.88 11.58Q71.65 10.93 71.65 10.22L71.65 10.22L71.65 10.22Q71.65 9.39 71.96 8.67L71.96 8.67L71.96 8.67Q72.26 7.94 72.81 7.41L72.81 7.41L72.81 7.41Q73.36 6.88 74.14 6.57L74.14 6.57L74.14 6.57Q74.92 6.26 75.87 6.26L75.87 6.26L75.87 6.26Q76.80 6.26 77.50 6.55L77.50 6.55L77.50 6.55Q78.20 6.84 78.67 7.32L78.67 7.32L78.67 7.32Q79.13 7.81 79.37 8.46L79.37 8.46L79.37 8.46Q79.60 9.11 79.60 9.84L79.60 9.84L79.60 9.84Q79.60 10.68 79.30 11.41L79.30 11.41L79.30 11.41Q78.99 12.13 78.43 12.66L78.43 12.66L78.43 12.66Q77.88 13.19 77.10 13.48L77.10 13.48L77.10 13.48Q76.32 13.78 75.38 13.78ZM75.67 12.31L75.67 12.31L75.67 12.31Q76.00 12.31 76.27 12.17L76.27 12.17L76.27 12.17Q76.54 12.04 76.73 11.76L76.73 11.76L76.73 11.76Q76.93 11.48 77.04 11.07L77.04 11.07L77.04 11.07Q77.16 10.66 77.16 10.12L77.16 10.12L77.16 10.12Q77.16 9.60 77.05 9.17L77.05 9.17L77.05 9.17Q76.95 8.73 76.74 8.41L76.74 8.41L76.74 8.41Q76.54 8.09 76.25 7.91L76.25 7.91L76.25 7.91Q75.96 7.73 75.58 7.73L75.58 7.73L75.58 7.73Q75.26 7.73 74.98 7.88L74.98 7.88L74.98 7.88Q74.71 8.03 74.52 8.31L74.52 8.31L74.52 8.31Q74.32 8.59 74.21 9.00L74.21 9.00L74.21 9.00Q74.10 9.41 74.10 9.94L74.10 9.94L74.10 9.94Q74.10 10.48 74.21 10.92L74.21 10.92L74.21 10.92Q74.32 11.35 74.53 11.67L74.53 11.67L74.53 11.67Q74.73 11.98 75.02 12.14L75.02 12.14L75.02 12.14Q75.31 12.31 75.67 12.31ZM81.22 13.64L81.22 6.40L83.23 6.40L83.51 8.52L83.51 8.52Q83.62 8.33 83.74 8.12L83.74 8.12L83.74 8.12Q83.85 7.92 83.95 7.74L83.95 7.74L83.95 7.74Q84.05 7.57 84.13 7.44L84.13 7.44L84.13 7.44Q84.21 7.31 84.24 7.25L84.24 7.25L84.24 7.25Q84.37 7.03 84.53 6.85L84.53 6.85L84.53 6.85Q84.70 6.67 84.90 6.54L84.90 6.54L84.90 6.54Q85.09 6.41 85.34 6.34L85.34 6.34L85.34 6.34Q85.59 6.26 85.89 6.26L85.89 6.26L85.89 6.26Q86.08 6.26 86.32 6.31L86.32 6.31L86.32 6.31Q86.56 6.36 86.75 6.48L86.75 6.48L86.50 8.61L86.50 8.61Q86.43 8.60 86.33 8.59L86.33 8.59L86.33 8.59Q86.23 8.58 86.12 8.57L86.12 8.57L86.12 8.57Q86.00 8.57 85.90 8.56L85.90 8.56L85.90 8.56Q85.79 8.56 85.71 8.56L85.71 8.56L85.71 8.56Q85.02 8.56 84.48 8.83L84.48 8.83L84.48 8.83Q83.93 9.09 83.60 9.51L83.60 9.51L83.60 13.64L81.22 13.64ZM87.71 13.28L88.05 11.73L88.18 11.66L88.18 11.66Q88.74 11.97 89.35 12.14L89.35 12.14L89.35 12.14Q89.96 12.31 90.47 12.31L90.47 12.31L90.47 12.31Q90.75 12.31 90.95 12.25L90.95 12.25L90.95 12.25Q91.16 12.20 91.29 12.10L91.29 12.10L91.29 12.10Q91.42 12.00 91.49 11.88L91.49 11.88L91.49 11.88Q91.55 11.75 91.55 11.61L91.55 11.61L91.55 11.61Q91.55 11.39 91.40 11.25L91.40 11.25L91.40 11.25Q91.25 11.10 90.99 11.00L90.99 11.00L90.99 11.00Q90.73 10.90 90.41 10.82L90.41 10.82L90.41 10.82Q90.08 10.74 89.75 10.64L89.75 10.64L89.75 10.64Q89.41 10.54 89.08 10.40L89.08 10.40L89.08 10.40Q88.76 10.27 88.50 10.05L88.50 10.05L88.50 10.05Q88.25 9.83 88.09 9.51L88.09 9.51L88.09 9.51Q87.94 9.18 87.94 8.72L87.94 8.72L87.94 8.72Q87.94 8.18 88.16 7.72L88.16 7.72L88.16 7.72Q88.38 7.27 88.82 6.95L88.82 6.95L88.82 6.95Q89.25 6.62 89.89 6.44L89.89 6.44L89.89 6.44Q90.52 6.26 91.36 6.26L91.36 6.26L91.36 6.26Q91.57 6.26 91.83 6.28L91.83 6.28L91.83 6.28Q92.10 6.29 92.38 6.32L92.38 6.32L92.38 6.32Q92.65 6.34 92.92 6.39L92.92 6.39L92.92 6.39Q93.18 6.44 93.39 6.50L93.39 6.50L93.04 8.04L92.91 8.11L92.91 8.11Q92.42 7.91 91.94 7.82L91.94 7.82L91.94 7.82Q91.46 7.73 91.12 7.73L91.12 7.73L91.12 7.73Q90.84 7.73 90.64 7.79L90.64 7.79L90.64 7.79Q90.44 7.84 90.32 7.93L90.32 7.93L90.32 7.93Q90.19 8.03 90.14 8.15L90.14 8.15L90.14 8.15Q90.08 8.26 90.08 8.40L90.08 8.40L90.08 8.40Q90.08 8.64 90.23 8.79L90.23 8.79L90.23 8.79Q90.39 8.93 90.64 9.03L90.64 9.03L90.64 9.03Q90.90 9.13 91.23 9.21L91.23 9.21L91.23 9.21Q91.55 9.29 91.89 9.38L91.89 9.38L91.89 9.38Q92.23 9.47 92.56 9.61L92.56 9.61L92.56 9.61Q92.89 9.74 93.14 9.96L93.14 9.96L93.14 9.96Q93.39 10.18 93.55 10.50L93.55 10.50L93.55 10.50Q93.71 10.81 93.71 11.28L93.71 11.28L93.71 11.28Q93.71 11.78 93.51 12.23L93.51 12.23L93.51 12.23Q93.30 12.69 92.89 13.03L92.89 13.03L92.89 13.03Q92.48 13.37 91.86 13.58L91.86 13.58L91.86 13.58Q91.23 13.78 90.38 13.78L90.38 13.78L90.38 13.78Q90.06 13.78 89.72 13.75L89.72 13.75L89.72 13.75Q89.37 13.72 89.03 13.66L89.03 13.66L89.03 13.66Q88.68 13.60 88.34 13.50L88.34 13.50L88.34 13.50Q88.01 13.41 87.71 13.28L87.71 13.28ZM101.63 11.87L101.63 12.89L101.63 12.89Q101.26 13.15 100.87 13.32L100.87 13.32L100.87 13.32Q100.49 13.49 100.11 13.60L100.11 13.60L100.11 13.60Q99.72 13.70 99.35 13.74L99.35 13.74L99.35 13.74Q98.98 13.78 98.64 13.78L98.64 13.78L98.64 13.78Q97.77 13.78 97.06 13.55L97.06 13.55L97.06 13.55Q96.36 13.31 95.87 12.87L95.87 12.87L95.87 12.87Q95.38 12.42 95.11 11.77L95.11 11.77L95.11 11.77Q94.85 11.12 94.85 10.29L94.85 10.29L94.85 10.29Q94.85 9.34 95.18 8.60L95.18 8.60L95.18 8.60Q95.50 7.85 96.06 7.33L96.06 7.33L96.06 7.33Q96.61 6.82 97.33 6.54L97.33 6.54L97.33 6.54Q98.05 6.26 98.85 6.26L98.85 6.26L98.85 6.26Q99.53 6.26 100.11 6.47L100.11 6.47L100.11 6.47Q100.69 6.69 101.11 7.10L101.11 7.10L101.11 7.10Q101.53 7.51 101.76 8.12L101.76 8.12L101.76 8.12Q101.99 8.74 101.99 9.54L101.99 9.54L101.99 9.54Q101.99 9.80 101.97 10.01L101.97 10.01L101.97 10.01Q101.94 10.23 101.91 10.38L101.91 10.38L97.29 10.38L97.29 10.38Q97.29 10.86 97.46 11.20L97.46 11.20L97.46 11.20Q97.62 11.54 97.94 11.76L97.94 11.76L97.94 11.76Q98.25 11.98 98.68 12.09L98.68 12.09L98.68 12.09Q99.12 12.19 99.66 12.19L99.66 12.19L99.66 12.19Q99.85 12.19 100.09 12.17L100.09 12.17L100.09 12.17Q100.32 12.16 100.58 12.12L100.58 12.12L100.58 12.12Q100.84 12.09 101.10 12.03L101.10 12.03L101.10 12.03Q101.37 11.97 101.63 11.87L101.63 11.87ZM97.29 9.54L99.84 9.54L99.84 9.54Q99.84 9.07 99.75 8.73L99.75 8.73L99.75 8.73Q99.65 8.39 99.49 8.17L99.49 8.17L99.49 8.17Q99.33 7.94 99.10 7.84L99.10 7.84L99.10 7.84Q98.88 7.73 98.61 7.73L98.61 7.73L98.61 7.73Q98.31 7.73 98.07 7.85L98.07 7.85L98.07 7.85Q97.83 7.98 97.65 8.21L97.65 8.21L97.65 8.21Q97.48 8.44 97.38 8.78L97.38 8.78L97.38 8.78Q97.29 9.11 97.29 9.54L97.29 9.54Z"></path></g><defs data-v-fde0c5aa=""><linearGradient data-v-fde0c5aa="" gradientTransform="rotate(25)" id="6dfd2352-59a3-4b38-99a1-08f0740c6243" x1="0%" y1="0%" x2="100%" y2="0%"><stop data-v-fde0c5aa="" offset="0%" stop-color="#122663" stop-opacity="1"></stop><stop data-v-fde0c5aa="" offset="100%" stop-color="#5DD7AD" stop-opacity="1"></stop></linearGradient></defs><g data-v-fde0c5aa="" id="f46feae4-d75c-4d50-9c12-4147e4946374" stroke="none" fill="url(#6dfd2352-59a3-4b38-99a1-08f0740c6243)" transform="matrix(0.45477543690214217,0,0,0.45477543690214217,35.695550420328,129.53510609839202)"><path d="M38.182 57.753L20.18 47.91v-5.455l18.002-9.803v6.422l-12.557 6.039 12.557 6.266zM39.848 62.08l6.503-34.162h3.785L43.56 62.08zM51.8 57.78V51.4l12.572-6.219L51.8 39.028v-6.332L69.82 42.5v5.41z"></path><path d="M44.999 86.031L9.465 65.517V24.484L44.999 3.969l35.536 20.516v41.029L44.999 86.031zM13.07 63.434l31.929 18.434L76.93 63.434V26.566L44.999 8.131 13.07 26.565v36.869z"></path></g><!----></svg>